<svg width="29" height="17" viewBox="0 0 29 17" fill="none" xmlns="http://www.w3.org/2000/svg">
<path fill-rule="evenodd" clip-rule="evenodd" d="M24.3988 10.6387C25.364 11.5188 26.2819 12.4493 27.1489 13.4262C27.5279 13.8593 27.8578 14.3329 28.1326 14.8386C28.2312 14.9775 28.2937 15.1388 28.3146 15.3079C28.3354 15.477 28.3138 15.6485 28.2518 15.8072C28.1898 15.9659 28.0894 16.1065 27.9595 16.2167C27.8295 16.327 27.6743 16.403 27.5076 16.4383H23.4214C22.9347 16.4749 22.4462 16.3981 21.9944 16.2137C21.5425 16.0293 21.1397 15.7429 20.8176 15.3763C20.2539 14.7888 19.7289 14.1757 19.1839 13.5757C18.965 13.3275 18.7184 13.1055 18.4489 12.9135C18.3449 12.8237 18.2208 12.7599 18.0872 12.728C17.9536 12.696 17.8142 12.6967 17.6809 12.7298C17.5475 12.7629 17.424 12.8277 17.3208 12.9184C17.2176 13.0091 17.1376 13.1231 17.0876 13.251C16.7991 13.847 16.652 14.5012 16.6576 15.1633C16.6918 15.3406 16.6815 15.5238 16.6277 15.6961C16.5739 15.8685 16.4781 16.0251 16.3491 16.1514C16.2201 16.2777 16.0617 16.3698 15.8883 16.42C15.7148 16.4701 15.5316 16.4763 15.3551 16.4383C13.3251 16.5888 11.2947 16.1508 9.50761 15.1761C7.95021 14.2334 6.60931 12.9726 5.5726 11.4761C3.51933 8.57389 1.78236 5.46013 0.391349 2.18842C0.0650993 1.46342 0.303858 1.06384 1.10511 1.05134C2.44011 1.02634 3.77385 1.03884 5.1051 1.05134C5.35477 1.05618 5.59652 1.13958 5.79586 1.28998C5.9952 1.44038 6.14192 1.64999 6.2151 1.88874C6.92189 3.67086 7.83208 5.36547 8.9276 6.93879C9.19897 7.37227 9.54618 7.75323 9.9526 8.06366C10.0299 8.1473 10.1288 8.208 10.2384 8.23884C10.3479 8.26967 10.4639 8.2693 10.5735 8.23822C10.683 8.20715 10.7818 8.14624 10.8588 8.06244C10.9359 7.97865 10.9883 7.87511 11.0101 7.76337C11.1429 7.42347 11.2221 7.06493 11.2451 6.70075C11.3683 5.46498 11.3469 4.2194 11.1814 2.98859C11.1576 2.63838 11.0143 2.30701 10.7753 2.04987C10.5364 1.79273 10.2164 1.62558 9.86885 1.57624C9.47885 1.50124 9.53635 1.3508 9.7251 1.1258C9.86499 0.925825 10.0526 0.764356 10.2709 0.655217C10.4891 0.546078 10.7312 0.492721 10.9751 0.500798H15.5939C15.7385 0.515165 15.8789 0.558359 16.007 0.627141C16.1351 0.695923 16.2483 0.789135 16.3402 0.901799C16.432 1.01446 16.5008 1.14397 16.5424 1.28327C16.584 1.42256 16.5976 1.56897 16.5826 1.71357V6.86371C16.57 7.12003 16.6234 7.37488 16.7376 7.60468C16.8519 7.83448 17.0232 8.03128 17.2351 8.17597C17.4163 8.20474 17.6019 8.17714 17.7668 8.09662C17.9316 8.0161 18.0677 7.88674 18.1564 7.72614C19.2197 6.52634 20.0969 5.17383 20.7589 3.71369C21.0701 3.07619 21.3401 2.4133 21.6013 1.7508C21.6639 1.52836 21.8028 1.33542 21.9937 1.20514C22.1845 1.07487 22.4151 1.01579 22.6451 1.03852H27.0913C27.2231 1.03434 27.3549 1.04274 27.4851 1.06354C27.6293 1.0503 27.7744 1.07777 27.9037 1.14289C28.0331 1.208 28.1416 1.30786 28.2168 1.43158C28.2921 1.55531 28.3312 1.69815 28.3295 1.84296C28.3279 1.98778 28.2857 2.12929 28.2076 2.25129C27.7863 3.36429 27.1891 4.40244 26.4389 5.32624C25.6976 6.36374 24.9064 7.36337 24.1688 8.38837C24.0062 8.53643 23.8805 8.72063 23.8019 8.92609C23.7233 9.13155 23.6941 9.35301 23.7164 9.57184C23.7388 9.79067 23.8122 10.0012 23.9307 10.1865C24.0492 10.3718 24.2096 10.5267 24.3988 10.6387Z" fill="white"/>
</svg>
