<svg class="footer__logo-svg" viewBox="0 0 130 22" width="130" height="22" xml:space="preserve">
<g>
	<path class="st0" d="M113.1,13.5v7.3h4.1v-7.3c0-2.7,1.1-3.6,2.9-3.6h1.5V6.3h-1.8C115.5,6.3,113.1,8.9,113.1,13.5z M55.7,13.5v7.3
		h4.1v-7.3c0-2.7,1.1-3.6,2.9-3.6h1.5V6.3h-1.8C58.1,6.3,55.7,8.9,55.7,13.5z M123.1,5.2c-0.1-1.4,0.6-2.7,1.7-3.5
		C126,1,127.1,1,128.4,1h1.6v3.3h-1c-0.6-0.1-1.2,0.1-1.6,0.6c-0.3,0.3-0.2,0.5-0.2,1.1v0.4h2.7v3.3h-2.7V18c0,0-0.1,2.7-2.4,2.7
		h-1.8C123.1,20.7,123,5.6,123.1,5.2z"></path>
	<path d="M6.6,1C7.7,1,8.7,1,9.8,1c1.7,0.1,3.3,0.7,4.5,1.9c0.8,0.8,1.2,1.9,1.1,3.1c0.1,1.5-0.7,2.9-1.9,3.7
		c-0.3,0.2-0.6,0.4-1,0.4c0.4,0.2,0.9,0.4,1.3,0.7c1.3,1,2.1,2.5,2,4.1c0,1.1-0.3,2.3-1,3.3c-1.9,2.7-5.2,2.5-6,2.5s-1.9,0-2.7,0
		H2.9c-2.7,0-2.9-2.9-2.9-2.9V1H6.6z M6.8,8.7c1.5,0,2.6,0.1,3.1-0.3c0.7-0.3,1.1-1,1.1-1.8c0-0.8-0.4-1.5-1.1-1.7
		C9.1,4.7,8.2,4.7,7.3,4.7H4.4v4H6.8z M7,17c0.6,0,1.2,0,1.7,0c1-0.1,1.7-0.1,2.2-0.9c0.3-0.4,0.5-1,0.5-1.6c0.1-1.1-0.7-2-1.8-2.3
		c-0.8-0.1-1.5-0.1-2.3-0.1H4.4v4.3c0,0,0.1,0.6,0.6,0.6L7,17L7,17z"></path>
	<polygon class="st0" points="33.3,20.8 33.3,6.4 37.5,6.4 37.5,20.8 	"></polygon>
	<path d="M94.1,1v19.8H90c0-0.6,0-1.1,0.1-1.7c-0.3,0.4-0.5,0.8-0.9,1.2c-0.9,0.7-2,1-3.1,1c-0.9,0-1.9-0.2-2.7-0.6
		c-1.7-0.8-3.7-2.8-3.7-7c0-1.1,0.2-2.2,0.5-3.3C81.1,7.8,83.2,6,86.1,6c1.1,0,2.2,0.3,3.1,1c0.2,0.2,0.4,0.4,0.6,0.6V3.5
		c0-0.7,0.3-1.3,0.8-1.9s1.1-0.8,1.9-0.7L94.1,1z M83.9,13.6c0,1.9,0.5,2.8,1.1,3.4c0.5,0.6,1.2,0.9,2,0.9c0.6,0,1.1-0.2,1.6-0.5
		c0.9-0.6,1.4-1.8,1.4-4c0-0.3,0.1-2.4-1.2-3.4c-0.5-0.4-1.1-0.6-1.8-0.6C85.4,9.4,83.8,10.5,83.9,13.6L83.9,13.6z M21.4,14.9
		c0,0.6,0.2,1.2,0.6,1.8c0.6,0.9,1.6,1.4,2.6,1.3c1,0.1,2-0.4,2.6-1.3h4.3c-1.6,4.3-5.4,4.7-7,4.7c-1,0-1.9-0.1-2.7-0.4
		c-3.1-1.1-4.6-4-4.6-7.1c0-1.9,0.6-3.7,1.7-5.2c1.3-1.7,3.4-2.7,5.7-2.6c1,0,2,0.2,2.9,0.6c1.4,0.6,3.3,2,4,5.5
		c0.1,0.8,0.2,1.5,0.3,2.3c0,0.1,0,0.3,0,0.5L21.4,14.9z M27.3,11.9c0-0.2,0-0.4-0.1-0.6c-0.3-1.3-1.5-2.1-2.7-2
		c-1.3,0-2.5,0.8-2.9,2c-0.1,0.3-0.1,0.4-0.2,0.7L27.3,11.9z M43.8,14.9c0,0.6,0.2,1.2,0.5,1.8c0.6,0.9,1.6,1.4,2.7,1.3
		c1,0.1,2-0.4,2.6-1.3h4.3c-1.6,4.3-5.4,4.7-7,4.7c-1,0-1.9-0.1-2.7-0.4c-3.1-1.1-4.6-4-4.6-7.1c0-1.9,0.6-3.7,1.7-5.2
		c1.3-1.8,3.5-2.7,5.7-2.6c1,0,2,0.2,2.9,0.6c1.4,0.6,3.3,2,4,5.5c0.1,0.8,0.2,1.5,0.3,2.3c0,0.1,0,0.3,0,0.5L43.8,14.9z M49.6,11.9
		c0-0.2,0-0.4-0.1-0.6c-0.3-1.3-1.4-2.2-2.7-2.1c-1.3,0-2.5,0.8-2.9,2c-0.1,0.3-0.1,0.4-0.2,0.7H49.6z"></path>
	<path class="st0" d="M74,10.7c-0.1-0.3-0.1-0.5-0.3-0.7c-0.5-0.7-1.4-1.1-2.3-1c-0.3,0-0.5,0-0.8,0.1c-0.9,0.2-1.2,0.8-1.2,1.2
		c0,0.3,0.3,0.6,0.6,0.8c0.5,0.2,1.1,0.3,1.7,0.4l1.5,0.3l1.3,0.3c1.4,0.4,2.6,0.8,3.3,2.3c0.3,0.6,0.4,1.2,0.4,1.9
		c0,1-0.3,1.9-0.8,2.7c-0.8,1.2-2.4,2.3-5.6,2.3s-4.7-1-5.6-2.1c-0.7-0.8-1.1-1.9-1.1-3.1h4c0.1,0.4,0.1,0.7,0.3,1
		c0.3,0.5,1.1,1,2.6,1c0.3,0,0.6-0.1,0.9-0.1c0.2,0,1.3-0.3,1.3-1.3c0-1-1-1.2-2.4-1.5c-2.7-0.6-4-0.9-5-1.9
		c-0.7-0.7-1.1-1.7-1.1-2.7c0-0.9,0.3-1.7,0.7-2.5c0.8-1.2,2.3-2.3,5.3-2.3c0.6,0,3.6,0,5.4,2.1c0.6,0.8,1,1.7,1,2.7L74,10.7z"></path>
	<path d="M108.7,7.7c1.7,1.5,2.6,3.6,2.6,5.9c0,3.3-1.8,6.3-4.9,7.3c-0.9,0.3-1.9,0.4-2.7,0.4c-1,0-2-0.2-3.1-0.5
		c-3-1.1-4.5-4-4.5-7.1c-0.1-2,0.6-3.9,1.9-5.4c1.5-1.5,3.6-2.4,5.7-2.3C105.6,5.9,107.3,6.6,108.7,7.7z M100.2,13.6
		c0,3.3,1.8,4.3,3.4,4.3c0.5,0,1.1-0.1,1.5-0.3c1-0.5,1.9-1.7,1.9-4c0-0.7-0.1-1.3-0.3-2c-0.4-1.3-1.7-2.3-3.1-2.2
		C102,9.3,100.2,10.3,100.2,13.6L100.2,13.6z"></path>
	<ellipse class="st0" cx="35.4" cy="2.3" rx="2.4" ry="2.3"></ellipse>
</g>
</svg>